<?xml version="1.0" standalone="no"?><!DOCTYPE svg PUBLIC "-//W3C//DTD SVG 1.1//EN" "http://www.w3.org/Graphics/SVG/1.1/DTD/svg11.dtd"><svg t="1724602891021" class="icon" viewBox="0 0 1024 1024" version="1.1" xmlns="http://www.w3.org/2000/svg" p-id="6052" xmlns:xlink="http://www.w3.org/1999/xlink" width="200" height="200"><path d="M381.1 902H234c-56.4 0-102.3-45.9-102.3-102.3V159.4c0-56.4 45.9-102.3 102.3-102.3h510.3c56.4 0 102.3 45.9 102.3 102.3v169h-54.4v-169c0-26.4-21.5-47.9-47.9-47.9H234c-26.4 0-47.9 21.5-47.9 47.9v640.3c0 26.4 21.5 47.9 47.9 47.9h147.2V902z" fill="#2c2c2c" p-id="6053"></path><path d="M279.6 247.4h430v56h-430zM279.6 393.3H623v56H279.6zM281.3 574.7h210.3v56H281.3zM474 957.4l12-128.2 324.1-389.1 103.5 95.6-308.1 383.7-131.5 38z m64.6-106.3l-3 31.8 38.2-11 265.6-330.7-24.1-22.2-276.7 332.1z" fill="#2c2c2c" p-id="6054"></path></svg>